<svg width="32" height="32" viewBox="0 0 32 32" fill="none" xmlns="http://www.w3.org/2000/svg">
<g clip-path="url(#clip0_1_156)">
<path d="M16 0.610168C10.371 0.610168 5.80791 5.38577 5.80791 11.2768C5.80791 13.1715 6.29407 14.9435 7.12167 16.4848C7.25913 16.7408 7.40322 16.9928 7.55967 17.2355L16 32.6102L24.4403 17.2355C24.5703 17.0342 24.6824 16.8208 24.7983 16.6102L24.8786 16.4848C25.7054 14.9435 26.1921 13.1715 26.1921 11.2768C26.1921 5.38577 21.6286 0.610168 16 0.610168ZM16 5.9435C18.8143 5.9435 21.096 8.33137 21.096 11.2768C21.096 14.2222 18.8143 16.6102 16 16.6102C13.1856 16.6102 10.904 14.2222 10.904 11.2768C10.904 8.33137 13.1856 5.9435 16 5.9435Z" fill="white"/>
</g>
<defs>
<clipPath id="clip0_1_156">
<rect width="32" height="32" fill="white"/>
</clipPath>
</defs>
</svg>
