<svg width="32" height="32" viewBox="0 0 32 32" fill="none" xmlns="http://www.w3.org/2000/svg">
<path d="M19.1566 7.51011L24.6049 12.9585L21.3744 12.4201L20.73 12.3127L21.1381 12.8228L26.0633 18.9793L22.7078 18.4201L22.0095 18.3037L22.4798 18.8328L27.3597 24.3227L18.702 23.0858L18.3826 23.0402L18.4182 23.3609L19.0596 29.1331L16 29.7451L12.9404 29.1331L13.5818 23.3609L13.6174 23.0402L13.298 23.0858L4.64027 24.3227L9.52019 18.8328L9.9736 18.3227L9.29798 18.4192L5.31345 18.9884L10.8525 12.8339L11.3307 12.3025L10.6256 12.4201L7.39507 12.9585L12.8434 7.51011L13.4273 6.92625L12.6176 7.08819L10.178 7.57611L16 2.33634L21.822 7.57611L19.3824 7.08819L18.5727 6.92625L19.1566 7.51011Z" fill="white" stroke="black" stroke-width="0.5"/>
</svg>
