<svg width="24" height="24" viewBox="0 0 24 24" fill="none" xmlns="http://www.w3.org/2000/svg">
<path d="M14.3232 6.17678L18.2716 10.1252L16.0411 9.7534L15.3966 9.64599L15.8048 10.1562L19.3966 14.646L17.0411 14.2534L16.3429 14.137L16.8131 14.6661L20.3597 18.656L14.0354 17.7525L13.7159 17.7069L13.7515 18.0276L14.2262 22.2998L12 22.7451L9.77378 22.2998L10.2485 18.0276L10.2841 17.7069L9.96464 17.7525L3.64027 18.656L7.18685 14.6661L7.64027 14.156L6.96464 14.2525L4.14678 14.6551L8.18582 10.1672L8.66405 9.63588L7.9589 9.7534L5.7284 10.1252L9.67678 6.17678L10.2606 5.59292L9.45097 5.75485L7.8447 6.07611L12 2.33634L16.1553 6.07611L14.549 5.75485L13.7394 5.59292L14.3232 6.17678Z" fill="white" stroke="black" stroke-width="0.5"/>
</svg>
