<svg width="24" height="24" viewBox="0 0 24 24" fill="none" xmlns="http://www.w3.org/2000/svg">
<path d="M13.1768 8.82322L12.9315 8.57796L12.7764 8.8882L12 10.441L11.2236 8.8882L11.0309 8.50288L10.792 8.86132L10.0309 10.0029L9.72361 9.3882L9.70546 9.35191L9.67678 9.32322L8.81012 8.45657L11.2015 4.15202L11.9424 3.41113L14.25 7.56478V9.89645L13.1768 8.82322ZM14.75 10.5V8.79815L16.2679 12.5928L16.2784 12.6191L16.2945 12.6423L20.6226 18.8941L11.9949 22.7287L2.44487 18.9087L6.67678 14.6768L6.71851 14.635L6.73717 14.5791L8.60925 8.96281L9.29454 9.64809L9.77639 10.6118L9.96905 10.9971L10.208 10.6387L10.9691 9.49712L11.7764 11.1118L12 11.559L12.2236 11.1118L13.0685 9.42204L14.3232 10.6768L14.75 11.1036V10.5Z" fill="white" stroke="black" stroke-width="0.5"/>
</svg>
