<svg width="24" height="24" viewBox="0 0 24 24" fill="none" xmlns="http://www.w3.org/2000/svg">
<mask id="path-1-inside-1_1313_72" fill="white">
<path fill-rule="evenodd" clip-rule="evenodd" d="M12.8492 2.36585C12.458 1.73655 11.5421 1.73655 11.1508 2.36586L0.825716 18.972C0.411543 19.6381 0.890557 20.5 1.67495 20.5L10 20.5L12 23L14 20.5L22.3251 20.5C23.1095 20.5 23.5885 19.6381 23.1743 18.972L12.8492 2.36585ZM13 6H11L11.5 15.5H12.5L13 6ZM12 19C12.5523 19 13 18.5523 13 18C13 17.4477 12.5523 17 12 17C11.4477 17 11 17.4477 11 18C11 18.5523 11.4477 19 12 19Z"/>
</mask>
<path fill-rule="evenodd" clip-rule="evenodd" d="M12.8492 2.36585C12.458 1.73655 11.5421 1.73655 11.1508 2.36586L0.825716 18.972C0.411543 19.6381 0.890557 20.5 1.67495 20.5L10 20.5L12 23L14 20.5L22.3251 20.5C23.1095 20.5 23.5885 19.6381 23.1743 18.972L12.8492 2.36585ZM13 6H11L11.5 15.5H12.5L13 6ZM12 19C12.5523 19 13 18.5523 13 18C13 17.4477 12.5523 17 12 17C11.4477 17 11 17.4477 11 18C11 18.5523 11.4477 19 12 19Z" fill="white"/>
<path d="M11.1508 2.36586L10.7262 2.10185L10.7262 2.10185L11.1508 2.36586ZM12.8492 2.36585L13.2739 2.10184L13.2739 2.10184L12.8492 2.36585ZM0.825716 18.972L0.4011 18.708L0.4011 18.708L0.825716 18.972ZM1.67495 20.5L1.67495 21L1.67495 21L1.67495 20.5ZM10 20.5L10.3904 20.1877L10.2403 20L10 20L10 20.5ZM12 23L11.6096 23.3123L12 23.8004L12.3904 23.3123L12 23ZM14 20.5L14 20L13.7597 20L13.6096 20.1877L14 20.5ZM22.3251 20.5L22.3251 21H22.3251V20.5ZM23.1743 18.972L22.7497 19.236L22.7497 19.236L23.1743 18.972ZM11 6V5.5H10.473L10.5007 6.02628L11 6ZM13 6L13.4993 6.02628L13.527 5.5H13V6ZM11.5 15.5L11.0007 15.5263L11.0256 16H11.5V15.5ZM12.5 15.5V16H12.9744L12.9993 15.5263L12.5 15.5ZM11.5754 2.62987C11.771 2.31521 12.229 2.31521 12.4246 2.62987L13.2739 2.10184C12.6869 1.15788 11.3131 1.15789 10.7262 2.10185L11.5754 2.62987ZM1.25033 19.236L11.5754 2.62987L10.7262 2.10185L0.4011 18.708L1.25033 19.236ZM1.67495 20C1.28275 20 1.04324 19.5691 1.25033 19.236L0.4011 18.708C-0.220159 19.7072 0.49836 21 1.67495 21V20ZM10 20L1.67494 20L1.67495 21L10 21L10 20ZM12.3904 22.6877L10.3904 20.1877L9.60957 20.8123L11.6096 23.3123L12.3904 22.6877ZM13.6096 20.1877L11.6096 22.6877L12.3904 23.3123L14.3904 20.8123L13.6096 20.1877ZM22.3251 20L14 20L14 21L22.3251 21L22.3251 20ZM22.7497 19.236C22.9568 19.5691 22.7173 20 22.3251 20V21C23.5017 21 24.2202 19.7072 23.5989 18.708L22.7497 19.236ZM12.4246 2.62986L22.7497 19.236L23.5989 18.708L13.2739 2.10184L12.4246 2.62986ZM11 6.5H13V5.5H11V6.5ZM11.9993 15.4737L11.4993 5.97372L10.5007 6.02628L11.0007 15.5263L11.9993 15.4737ZM12.5 15H11.5V16H12.5V15ZM12.5007 5.97372L12.0007 15.4737L12.9993 15.5263L13.4993 6.02628L12.5007 5.97372ZM12.5 18C12.5 18.2761 12.2761 18.5 12 18.5V19.5C12.8284 19.5 13.5 18.8284 13.5 18H12.5ZM12 17.5C12.2761 17.5 12.5 17.7239 12.5 18H13.5C13.5 17.1716 12.8284 16.5 12 16.5V17.5ZM11.5 18C11.5 17.7239 11.7239 17.5 12 17.5V16.5C11.1716 16.5 10.5 17.1716 10.5 18H11.5ZM12 18.5C11.7239 18.5 11.5 18.2761 11.5 18H10.5C10.5 18.8284 11.1716 19.5 12 19.5V18.5Z" fill="black" mask="url(#path-1-inside-1_1313_72)"/>
</svg>
