<svg width="32" height="32" viewBox="0 0 32 32" fill="none" xmlns="http://www.w3.org/2000/svg">
<mask id="path-1-inside-1_1313_72" fill="white">
<path fill-rule="evenodd" clip-rule="evenodd" d="M17.0497 2.62614C16.566 1.79129 15.434 1.79129 14.9503 2.62614L2.18832 24.6563C1.67639 25.54 2.26847 26.6834 3.23799 26.6834L13.5279 26.6834L16 30L18.472 26.6834L28.762 26.6834C29.7315 26.6834 30.3236 25.54 29.8117 24.6563L17.0497 2.62614ZM17.236 7.44731H14.764L15.382 20.0503H16.618L17.236 7.44731ZM16 24.6935C16.6826 24.6935 17.236 24.0995 17.236 23.3669C17.236 22.6342 16.6826 22.0402 16 22.0402C15.3174 22.0402 14.764 22.6342 14.764 23.3669C14.764 24.0995 15.3174 24.6935 16 24.6935Z"/>
</mask>
<path fill-rule="evenodd" clip-rule="evenodd" d="M17.0497 2.62614C16.566 1.79129 15.434 1.79129 14.9503 2.62614L2.18832 24.6563C1.67639 25.54 2.26847 26.6834 3.23799 26.6834L13.5279 26.6834L16 30L18.472 26.6834L28.762 26.6834C29.7315 26.6834 30.3236 25.54 29.8117 24.6563L17.0497 2.62614ZM17.236 7.44731H14.764L15.382 20.0503H16.618L17.236 7.44731ZM16 24.6935C16.6826 24.6935 17.236 24.0995 17.236 23.3669C17.236 22.6342 16.6826 22.0402 16 22.0402C15.3174 22.0402 14.764 22.6342 14.764 23.3669C14.764 24.0995 15.3174 24.6935 16 24.6935Z" fill="white"/>
<path d="M14.9503 2.62614L14.5177 2.37551L14.5177 2.37551L14.9503 2.62614ZM17.0497 2.62614L16.617 2.87677L16.617 2.87677L17.0497 2.62614ZM2.18832 24.6563L1.75567 24.4057L1.75567 24.4057L2.18832 24.6563ZM3.23799 26.6834L3.23799 27.1834L3.23799 27.1834L3.23799 26.6834ZM13.5279 26.6834L13.9288 26.3846L13.7789 26.1834L13.5279 26.1834L13.5279 26.6834ZM16 30L15.5991 30.2988L16 30.8367L16.4009 30.2988L16 30ZM18.472 26.6834L18.472 26.1834L18.2211 26.1834L18.0711 26.3846L18.472 26.6834ZM28.762 26.6834L28.762 27.1834H28.762V26.6834ZM29.8117 24.6563L29.379 24.907L29.379 24.907L29.8117 24.6563ZM14.764 7.44731V6.94731H14.2389L14.2646 7.4718L14.764 7.44731ZM17.236 7.44731L17.7354 7.4718L17.7611 6.94731H17.236V7.44731ZM15.382 20.0503L14.8826 20.0748L14.9059 20.5503H15.382V20.0503ZM16.618 20.0503V20.5503H17.0941L17.1174 20.0748L16.618 20.0503ZM15.383 2.87677C15.674 2.37441 16.326 2.37441 16.617 2.87677L17.4823 2.37551C16.8061 1.20816 15.1939 1.20816 14.5177 2.37551L15.383 2.87677ZM2.62097 24.907L15.383 2.87677L14.5177 2.37551L1.75567 24.4057L2.62097 24.907ZM3.23799 26.1834C2.71306 26.1834 2.2716 25.5101 2.62097 24.907L1.75567 24.4057C1.08119 25.57 1.82387 27.1834 3.23799 27.1834V26.1834ZM13.5279 26.1834L3.23799 26.1834L3.23799 27.1834L13.5279 27.1834L13.5279 26.1834ZM16.4009 29.7012L13.9288 26.3846L13.1271 26.9822L15.5991 30.2988L16.4009 29.7012ZM18.0711 26.3846L15.5991 29.7012L16.4009 30.2988L18.8729 26.9822L18.0711 26.3846ZM28.762 26.1834L18.472 26.1834L18.472 27.1834L28.762 27.1834L28.762 26.1834ZM29.379 24.907C29.7284 25.51 29.2869 26.1834 28.762 26.1834V27.1834C30.1761 27.1834 30.9188 25.57 30.2443 24.4057L29.379 24.907ZM16.617 2.87677L29.379 24.907L30.2443 24.4057L17.4823 2.37551L16.617 2.87677ZM14.764 7.94731H17.236V6.94731H14.764V7.94731ZM15.8814 20.0258L15.2634 7.42282L14.2646 7.4718L14.8826 20.0748L15.8814 20.0258ZM16.618 19.5503H15.382V20.5503H16.618V19.5503ZM16.7366 7.42282L16.1186 20.0258L17.1174 20.0748L17.7354 7.4718L16.7366 7.42282ZM16.736 23.3669C16.736 23.8573 16.3738 24.1935 16 24.1935V25.1935C16.9915 25.1935 17.736 24.3418 17.736 23.3669H16.736ZM16 22.5402C16.3738 22.5402 16.736 22.8764 16.736 23.3669H17.736C17.736 22.3919 16.9915 21.5402 16 21.5402V22.5402ZM15.264 23.3669C15.264 22.8764 15.6262 22.5402 16 22.5402V21.5402C15.0085 21.5402 14.264 22.3919 14.264 23.3669H15.264ZM16 24.1935C15.6262 24.1935 15.264 23.8573 15.264 23.3669H14.264C14.264 24.3418 15.0085 25.1935 16 25.1935V24.1935Z" fill="black" mask="url(#path-1-inside-1_1313_72)"/>
</svg>
