<svg width="24" height="24" viewBox="0 0 24 24" fill="none" xmlns="http://www.w3.org/2000/svg">
<path d="M3.75 11.3581H5.75V20.0473H3.75V11.3581ZM6 20.5473H6.25H7.75H8H10.5H10.75H12.25H12.5H15H15.25H16.75H17H19.5H19.75V22.2109L12.9986 22.25L12.9587 22.2502L12.9209 22.2628L11.5 22.7365L10.0791 22.2628L10.0413 22.2502L10.0014 22.25L3.25 22.2109V20.5473H3.5H6ZM10.25 20.0473H8.25V11.3581H10.25V20.0473ZM14.75 20.0473H12.75V11.3581H14.75V20.0473ZM19.25 20.0473H17.25V11.3581H19.25V20.0473ZM3.5 10.8581H3.25V9.18318L4.25 9.13071L4.5131 9.11691L11.5 8.75034L18.4869 9.11691L18.75 9.13071L19.75 9.18318V10.8581H19.5H17H16.75H15.25H15H12.5H12.25H10.75H10.5H8H7.75H6.25H6H3.5ZM11.5 8.24966L11.4869 8.25034L4.7573 8.60341C4.83447 7.21386 5.52114 5.94369 6.7121 4.93207C7.97601 3.85848 9.6978 3.25 11.5 3.25C13.3022 3.25 15.024 3.85848 16.2879 4.93207C17.4789 5.9437 18.1655 7.21386 18.2427 8.60341L11.5131 8.25034L11.5 8.24966Z" fill="white" stroke="black" stroke-width="0.5"/>
</svg>
