<svg width="32" height="32" viewBox="0 0 32 32" fill="none" xmlns="http://www.w3.org/2000/svg">
<path d="M14.7092 11.55C14.5418 11.096 14.3692 10.7346 14.1883 10.4756C13.9925 10.1952 13.7439 9.975 13.4333 9.975C13.1227 9.975 12.8742 10.1952 12.6784 10.4756C12.5537 10.6541 12.4329 10.8813 12.3151 11.1539C11.8795 10.3893 11.2081 9.975 10.5 9.975C9.7819 9.975 9.10167 10.401 8.66667 11.1864C8.23167 10.401 7.55144 9.975 6.83333 9.975C6.27234 9.975 5.73446 10.235 5.31856 10.7232C5.59049 8.59489 6.66314 6.59383 8.38813 5.05702C10.4025 3.26238 13.1402 2.25 16 2.25C18.8598 2.25 21.5975 3.26238 23.6119 5.05702C25.4195 6.66744 26.5108 8.78765 26.715 11.0299C26.1179 10.3551 25.4969 9.975 24.8917 9.975C24.2307 9.975 23.7022 10.4194 23.3255 11.1723C22.8902 10.3959 22.2138 9.975 21.5 9.975C20.7919 9.975 20.1205 10.3893 19.6849 11.1539C19.5671 10.8813 19.4463 10.6541 19.3216 10.4756C19.1258 10.1952 18.8773 9.975 18.5667 9.975C18.2561 9.975 18.0075 10.1952 17.8117 10.4756C17.6308 10.7346 17.4582 11.096 17.2908 11.55H14.7092ZM14.7975 12.05H17.2025L16.4974 24.824C16.3322 24.8179 16.1663 24.8148 16 24.8148C15.8337 24.8148 15.6678 24.8179 15.5026 24.824L14.7975 12.05ZM15.2735 25.3351H16.7265C18.5606 25.4377 20.2779 25.9262 21.5742 26.7137C22.3367 27.1768 22.8969 27.5353 23.2714 27.9295C23.5823 28.2567 23.763 28.6069 23.8064 29.0716L16 29.7491L8.1936 29.0716C8.237 28.6069 8.41771 28.2567 8.72862 27.9294C9.10309 27.5353 9.66328 27.1768 10.4258 26.7137C11.7221 25.9262 13.4394 25.4377 15.2735 25.3351Z" fill="white" stroke="black" stroke-width="0.5"/>
</svg>
