<svg width="32" height="32" viewBox="0 0 32 32" fill="none" xmlns="http://www.w3.org/2000/svg">
<path d="M4.70588 13.1014H4.45588H4.25V10.5617L5.86765 10.4775L6.13064 10.4638L16 9.95034L25.8694 10.4638L26.1324 10.4775L27.75 10.5617V13.1014H27.5441H27.2941H23.7647H23.5147H21.1912H20.9412H17.4118H17.1618H14.8382H14.5882H11.0588H10.8088H8.48529H8.23529H4.70588ZM15.987 9.45034L6.37281 9.95054C6.45207 7.9312 7.44179 6.08776 9.17318 4.62934C10.9776 3.10941 13.4328 2.25 16 2.25C18.5672 2.25 21.0224 3.10941 22.8268 4.62934C24.5582 6.08776 25.5479 7.9312 25.6272 9.95054L16.013 9.45034L16 9.44966L15.987 9.45034ZM27.0441 13.6014V25.9662H24.0147V13.6014H27.0441ZM17.6618 13.6014H20.6912V25.9662H17.6618V13.6014ZM20.9412 26.4662H21.1912H23.5147H23.7647H27.2941H27.5441H27.75V28.9947L18.1162 29.05L18.0767 29.0502L18.0392 29.0626L16 29.7367L13.9608 29.0626L13.9233 29.0502L13.8838 29.05L4.25 28.9947V26.4662H4.45588H4.70588H8.23529H8.48529H10.8088H11.0588H14.5882H14.8382H17.1618H17.4118H20.9412ZM14.3382 25.9662H11.3088V13.6014H14.3382V25.9662ZM4.95588 13.6014H7.98529V25.9662H4.95588V13.6014Z" fill="white" stroke="black" stroke-width="0.5"/>
</svg>
