<svg width="32" height="32" viewBox="0 0 32 32" fill="none" xmlns="http://www.w3.org/2000/svg">
<path d="M18.0804 10.2325L17.8241 9.94856L17.6669 10.2972L16.6316 12.5921L15.5963 10.2972L15.4001 9.8623L15.1542 10.2711L14.137 11.9623L13.7016 10.9972L13.6855 10.9616L13.6593 10.9325L12.491 9.63766L14.3216 3.64762L15.9323 2.37246L19.5395 8.3694V11.8497L18.0804 10.2325ZM20.0395 12.5V9.72915L22.0806 15.3849L22.0897 15.4099L22.1038 15.4324L27.6383 24.2929L16 29.7241L4.41211 24.3164L9.86983 18.2675L9.90744 18.2258L9.92362 18.172L12.3221 10.1969L13.2619 11.2384L13.8774 12.6028L14.0736 13.0377L14.3195 12.6289L15.3367 10.9377L16.4037 13.3028L16.6316 13.808L16.8595 13.3028L17.9653 10.8514L19.6039 12.6675L20.0395 13.1503V12.5Z" fill="white" stroke="black" stroke-width="0.5"/>
</svg>
