<svg width="24" height="24" viewBox="0 0 24 24" fill="none" xmlns="http://www.w3.org/2000/svg">
<path d="M11.1075 9.75C10.9899 9.44357 10.8673 9.19445 10.7371 9.01137C10.5903 8.80502 10.3919 8.625 10.1333 8.625C9.8748 8.625 9.67633 8.80502 9.52959 9.01137C9.4544 9.11711 9.38173 9.24489 9.31109 9.39302C8.98344 8.89711 8.50663 8.625 8 8.625C7.48179 8.625 6.99478 8.9097 6.66667 9.42739C6.33856 8.9097 5.85155 8.625 5.33333 8.625C4.96882 8.625 4.61975 8.76586 4.33056 9.02958C4.56797 7.60729 5.32344 6.27469 6.50777 5.2384C7.9594 3.96822 9.93459 3.25 12 3.25C14.0654 3.25 16.0406 3.96822 17.4922 5.2384C18.7385 6.3289 19.5099 7.74751 19.7024 9.25349C19.3026 8.8541 18.884 8.625 18.4667 8.625C17.9849 8.625 17.6019 8.92311 17.3241 9.41294C16.9961 8.9044 16.5134 8.625 16 8.625C15.4934 8.625 15.0166 8.89712 14.6889 9.39303C14.6183 9.24489 14.5456 9.11711 14.4704 9.01137C14.3237 8.80502 14.1252 8.625 13.8667 8.625C13.6081 8.625 13.4097 8.80502 13.2629 9.01137C13.1327 9.19445 13.0101 9.44357 12.8925 9.75H11.1075ZM11.1978 10.25H12.8022L12.2975 19.2293C12.1986 19.2263 12.0994 19.2249 12 19.2249C11.9006 19.2249 11.8014 19.2263 11.7024 19.2293L11.1978 10.25ZM11.4734 19.7394H12.5266C13.8513 19.8124 15.0888 20.159 16.0203 20.7147C16.5766 21.0466 16.9756 21.2981 17.2404 21.5719C17.4392 21.7774 17.5598 21.9932 17.6008 22.2717L12 22.7491L6.39917 22.2717C6.4402 21.9932 6.56082 21.7773 6.7596 21.5719C7.02438 21.2981 7.4234 21.0466 7.97972 20.7147C8.91118 20.159 10.1487 19.8124 11.4734 19.7394Z" fill="white" stroke="black" stroke-width="0.5"/>
</svg>
