<svg width="32" height="32" viewBox="0 0 32 32" fill="none" xmlns="http://www.w3.org/2000/svg">
<mask id="path-1-inside-1_1313_59" fill="white">
<path fill-rule="evenodd" clip-rule="evenodd" d="M21.0335 24.3694C24.0987 21.6408 27 19.0583 27 13.4545C27 7.12837 22.0751 2 16 2C9.92487 2 5 7.12837 5 13.4545C5 19.0583 7.90126 21.6408 10.9665 24.3694C12.7745 25.9788 14.6396 27.639 16 30C17.3604 27.639 19.2255 25.9788 21.0335 24.3694ZM13.8 9.70163L13.5556 9.53846L13.1402 7.41725L12.9445 7.09091L12.4985 7.41725L12.3333 9.70163V11.007L13.4333 11.6597L13.8 19.4918L14.1667 19.8182L14.5333 19.4918L14.9 11.6597L16 11.007V9.70163L15.6333 7.41725L15.2667 7.09091L15.0706 7.41725L14.9 9.53846L14.5333 9.70163L14.4011 7.41725L14.1667 7.09091L13.9492 7.41725L13.8 9.70163ZM19.0556 7.58042L17.8333 7.09091L17.2222 19.4918L17.6296 19.8182L18.4445 19.4918V13.4545L19.6667 12.965V9.04895L19.0556 7.58042Z"/>
</mask>
<path fill-rule="evenodd" clip-rule="evenodd" d="M21.0335 24.3694C24.0987 21.6408 27 19.0583 27 13.4545C27 7.12837 22.0751 2 16 2C9.92487 2 5 7.12837 5 13.4545C5 19.0583 7.90126 21.6408 10.9665 24.3694C12.7745 25.9788 14.6396 27.639 16 30C17.3604 27.639 19.2255 25.9788 21.0335 24.3694ZM13.8 9.70163L13.5556 9.53846L13.1402 7.41725L12.9445 7.09091L12.4985 7.41725L12.3333 9.70163V11.007L13.4333 11.6597L13.8 19.4918L14.1667 19.8182L14.5333 19.4918L14.9 11.6597L16 11.007V9.70163L15.6333 7.41725L15.2667 7.09091L15.0706 7.41725L14.9 9.53846L14.5333 9.70163L14.4011 7.41725L14.1667 7.09091L13.9492 7.41725L13.8 9.70163ZM19.0556 7.58042L17.8333 7.09091L17.2222 19.4918L17.6296 19.8182L18.4445 19.4918V13.4545L19.6667 12.965V9.04895L19.0556 7.58042Z" fill="white"/>
<path d="M21.0335 24.3694L21.366 24.7428L21.366 24.7428L21.0335 24.3694ZM10.9665 24.3694L10.634 24.7428L10.634 24.7428L10.9665 24.3694ZM16 30L15.5668 30.2496L16 31.0015L16.4332 30.2496L16 30ZM13.5556 9.53846L13.0649 9.63456L13.1049 9.83879L13.278 9.95433L13.5556 9.53846ZM13.8 9.70163L13.5224 10.1175L14.2425 10.5982L14.299 9.73421L13.8 9.70163ZM13.1402 7.41725L13.6308 7.32116L13.614 7.23521L13.569 7.16011L13.1402 7.41725ZM12.9445 7.09091L13.3733 6.83376L13.0914 6.36377L12.6492 6.68742L12.9445 7.09091ZM12.4985 7.41725L12.2032 7.01376L12.0165 7.15041L11.9998 7.38119L12.4985 7.41725ZM12.3333 9.70163L11.8346 9.66557L11.8333 9.68358V9.70163H12.3333ZM12.3333 11.007H11.8333V11.2917L12.0782 11.437L12.3333 11.007ZM13.4333 11.6597L13.9328 11.6363L13.9202 11.3672L13.6885 11.2297L13.4333 11.6597ZM13.8 19.4918L13.3006 19.5152L13.3104 19.7254L13.4676 19.8653L13.8 19.4918ZM14.1667 19.8182L13.8343 20.1917L14.1667 20.4875L14.4991 20.1917L14.1667 19.8182ZM14.5333 19.4918L14.8658 19.8653L15.023 19.7254L15.0328 19.5152L14.5333 19.4918ZM14.9 11.6597L14.6449 11.2297L14.4132 11.3672L14.4006 11.6363L14.9 11.6597ZM16 11.007L16.2552 11.437L16.5 11.2917V11.007H16ZM16 9.70163H16.5V9.66176L16.4937 9.62239L16 9.70163ZM15.6333 7.41725L16.127 7.33801L16.0988 7.16216L15.9658 7.04376L15.6333 7.41725ZM15.2667 7.09091L15.5991 6.71742L15.1486 6.3165L14.8381 6.83341L15.2667 7.09091ZM15.0706 7.41725L14.642 7.15975L14.5816 7.26028L14.5722 7.37717L15.0706 7.41725ZM14.9 9.53846L15.1033 9.99527L15.3746 9.87454L15.3984 9.57855L14.9 9.53846ZM14.5333 9.70163L14.0342 9.73053L14.076 10.4524L14.7366 10.1584L14.5333 9.70163ZM14.4011 7.41725L14.9003 7.38835L14.8919 7.24344L14.8072 7.12555L14.4011 7.41725ZM14.1667 7.09091L14.5728 6.79921L14.1513 6.21246L13.7506 6.8136L14.1667 7.09091ZM13.9492 7.41725L13.5331 7.13994L13.4589 7.25122L13.4502 7.38468L13.9492 7.41725ZM17.8333 7.09091L18.0192 6.62675L17.3685 6.36611L17.334 7.0663L17.8333 7.09091ZM19.0556 7.58042L19.5172 7.38832L19.4365 7.19437L19.2415 7.11627L19.0556 7.58042ZM17.2222 19.4918L16.7228 19.4672L16.7103 19.7224L16.9096 19.8821L17.2222 19.4918ZM17.6296 19.8182L17.3171 20.2084L17.5447 20.3908L17.8155 20.2823L17.6296 19.8182ZM18.4445 19.4918L18.6304 19.956L18.9445 19.8302V19.4918H18.4445ZM18.4445 13.4545L18.2586 12.9904L17.9445 13.1162V13.4545H18.4445ZM19.6667 12.965L19.8526 13.4292L20.1667 13.3034V12.965H19.6667ZM19.6667 9.04895H20.1667V8.94907L20.1283 8.85685L19.6667 9.04895ZM26.5 13.4545C26.5 16.1594 25.8029 18.1105 24.7483 19.7156C23.6821 21.3385 22.2422 22.624 20.7011 23.9959L21.366 24.7428C22.89 23.3862 24.4334 22.0161 25.5841 20.2647C26.7465 18.4955 27.5 16.3534 27.5 13.4545H26.5ZM16 2.5C21.7801 2.5 26.5 7.38524 26.5 13.4545H27.5C27.5 6.87151 22.3702 1.5 16 1.5V2.5ZM5.5 13.4545C5.5 7.38524 10.2199 2.5 16 2.5V1.5C9.62984 1.5 4.5 6.87151 4.5 13.4545H5.5ZM11.2989 23.9959C9.75778 22.624 8.3179 21.3385 7.25166 19.7156C6.19709 18.1105 5.5 16.1594 5.5 13.4545H4.5C4.5 16.3534 5.25354 18.4955 6.4159 20.2647C7.5666 22.0161 9.10997 23.3862 10.634 24.7428L11.2989 23.9959ZM16.4332 29.7504C15.0268 27.3094 13.1007 25.5997 11.2989 23.9959L10.634 24.7428C12.4484 26.3579 14.2525 27.9686 15.5668 30.2496L16.4332 29.7504ZM20.7011 23.9959C18.8993 25.5997 16.9732 27.3094 15.5668 29.7504L16.4332 30.2496C17.7475 27.9686 19.5516 26.3579 21.366 24.7428L20.7011 23.9959ZM13.278 9.95433L13.5224 10.1175L14.0776 9.28577L13.8332 9.1226L13.278 9.95433ZM12.6495 7.51335L13.0649 9.63456L14.0462 9.44237L13.6308 7.32116L12.6495 7.51335ZM12.5157 7.34806L12.7114 7.6744L13.569 7.16011L13.3733 6.83376L12.5157 7.34806ZM12.7938 7.82074L13.2397 7.4944L12.6492 6.68742L12.2032 7.01376L12.7938 7.82074ZM12.832 9.7377L12.9972 7.45331L11.9998 7.38119L11.8346 9.66557L12.832 9.7377ZM12.8333 11.007V9.70163H11.8333V11.007H12.8333ZM13.6885 11.2297L12.5885 10.577L12.0782 11.437L13.1782 12.0897L13.6885 11.2297ZM14.2995 19.4685L13.9328 11.6363L12.9339 11.6831L13.3006 19.5152L14.2995 19.4685ZM14.4991 19.4447L14.1324 19.1183L13.4676 19.8653L13.8343 20.1917L14.4991 19.4447ZM14.2009 19.1183L13.8343 19.4447L14.4991 20.1917L14.8658 19.8653L14.2009 19.1183ZM14.4006 11.6363L14.0339 19.4685L15.0328 19.5152L15.3995 11.6831L14.4006 11.6363ZM15.7449 10.577L14.6449 11.2297L15.1552 12.0897L16.2552 11.437L15.7449 10.577ZM15.5 9.70163V11.007H16.5V9.70163H15.5ZM15.1397 7.49649L15.5063 9.78088L16.4937 9.62239L16.127 7.33801L15.1397 7.49649ZM14.9343 7.46441L15.3009 7.79075L15.9658 7.04376L15.5991 6.71742L14.9343 7.46441ZM15.4992 7.67475L15.6953 7.34841L14.8381 6.83341L14.642 7.15975L15.4992 7.67475ZM15.3984 9.57855L15.569 7.45734L14.5722 7.37717L14.4016 9.49838L15.3984 9.57855ZM14.7366 10.1584L15.1033 9.99527L14.6967 9.08165L14.3301 9.24482L14.7366 10.1584ZM13.9019 7.44615L14.0342 9.73053L15.0325 9.67274L14.9003 7.38835L13.9019 7.44615ZM13.7606 7.38261L13.995 7.70895L14.8072 7.12555L14.5728 6.79921L13.7606 7.38261ZM14.3652 7.69456L14.5827 7.36822L13.7506 6.8136L13.5331 7.13994L14.3652 7.69456ZM14.299 9.73421L14.4481 7.44983L13.4502 7.38468L13.3011 9.66906L14.299 9.73421ZM17.6475 7.55507L18.8697 8.04458L19.2415 7.11627L18.0192 6.62675L17.6475 7.55507ZM17.7216 19.5165L18.3327 7.11552L17.334 7.0663L16.7228 19.4672L17.7216 19.5165ZM17.9422 19.4279L17.5348 19.1016L16.9096 19.8821L17.3171 20.2084L17.9422 19.4279ZM18.2586 19.0277L17.4437 19.354L17.8155 20.2823L18.6304 19.956L18.2586 19.0277ZM17.9445 13.4545V19.4918H18.9445V13.4545H17.9445ZM19.4808 12.5009L18.2586 12.9904L18.6304 13.9187L19.8526 13.4292L19.4808 12.5009ZM19.1667 9.04895V12.965H20.1667V9.04895H19.1667ZM18.5939 7.77252L19.2051 9.24105L20.1283 8.85685L19.5172 7.38832L18.5939 7.77252Z" fill="black" mask="url(#path-1-inside-1_1313_59)"/>
</svg>
