<svg width="24" height="24" viewBox="0 0 24 24" fill="none" xmlns="http://www.w3.org/2000/svg">
<path d="M12.1017 22.4592C12.0646 22.508 12.0307 22.5525 12 22.5925C11.9693 22.5525 11.9354 22.508 11.8983 22.4592C11.7081 22.2088 11.436 21.8444 11.1094 21.389C10.4559 20.4779 9.58495 19.2043 8.71436 17.7535C7.84339 16.3021 6.97534 14.6776 6.32565 13.0644C5.67469 11.448 5.25 9.85999 5.25 8.47679C5.25 5.05576 8.25344 2.25 12 2.25C15.7466 2.25 18.75 5.05576 18.75 8.47679C18.75 9.85999 18.3253 11.448 17.6743 13.0644C17.0247 14.6776 16.1566 16.3021 15.2856 17.7535C14.4151 19.2043 13.5441 20.4779 12.8906 21.389C12.564 21.8444 12.2919 22.2088 12.1017 22.4592ZM12 11.7339C12.7785 11.7339 13.538 11.3595 14.0989 10.8167C14.6592 10.2745 15.05 9.53586 15.05 8.77419C15.05 8.01252 14.6592 7.27392 14.0989 6.73164C13.538 6.18886 12.7785 5.81452 12 5.81452C11.2215 5.81452 10.462 6.18886 9.90114 6.73164C9.34079 7.27392 8.95 8.01252 8.95 8.77419C8.95 9.53586 9.34079 10.2745 9.90114 10.8167C10.462 11.3595 11.2215 11.7339 12 11.7339Z" fill="white" stroke="black" stroke-width="0.5"/>
</svg>
