<svg width="24" height="24" viewBox="0 0 24 24" fill="none" xmlns="http://www.w3.org/2000/svg">
<mask id="path-1-inside-1_1313_59" fill="white">
<path fill-rule="evenodd" clip-rule="evenodd" d="M16.1183 18.5759C18.6262 16.4321 21 14.4029 21 10C21 5.02944 16.9706 1 12 1C7.02943 1 2.99999 5.02944 2.99999 10C2.99999 14.4029 5.37375 16.4321 7.88167 18.5759C9.36097 19.8405 10.887 21.1449 12 23C13.113 21.1449 14.639 19.8405 16.1183 18.5759ZM10.2 7.05128L10 6.92308L9.66012 5.25641L9.50001 5L9.13516 5.25641L9.00001 7.05128V8.07692L9.90001 8.58974L10.2 14.7436L10.5 15L10.8 14.7436L11.1 8.58974L12 8.07692V7.05128L11.7 5.25641L11.4 5L11.2396 5.25641L11.1 6.92308L10.8 7.05128L10.6918 5.25641L10.5 5L10.322 5.25641L10.2 7.05128ZM14.5 5.38462L13.5 5L13 14.7436L13.3333 15L14 14.7436V10L15 9.61539V6.53846L14.5 5.38462Z"/>
</mask>
<path fill-rule="evenodd" clip-rule="evenodd" d="M16.1183 18.5759C18.6262 16.4321 21 14.4029 21 10C21 5.02944 16.9706 1 12 1C7.02943 1 2.99999 5.02944 2.99999 10C2.99999 14.4029 5.37375 16.4321 7.88167 18.5759C9.36097 19.8405 10.887 21.1449 12 23C13.113 21.1449 14.639 19.8405 16.1183 18.5759ZM10.2 7.05128L10 6.92308L9.66012 5.25641L9.50001 5L9.13516 5.25641L9.00001 7.05128V8.07692L9.90001 8.58974L10.2 14.7436L10.5 15L10.8 14.7436L11.1 8.58974L12 8.07692V7.05128L11.7 5.25641L11.4 5L11.2396 5.25641L11.1 6.92308L10.8 7.05128L10.6918 5.25641L10.5 5L10.322 5.25641L10.2 7.05128ZM14.5 5.38462L13.5 5L13 14.7436L13.3333 15L14 14.7436V10L15 9.61539V6.53846L14.5 5.38462Z" fill="white"/>
<path d="M16.1183 18.5759L15.7934 18.1959L15.7934 18.1959L16.1183 18.5759ZM7.88167 18.5759L8.20655 18.1959L8.20655 18.1959L7.88167 18.5759ZM12 23L11.5712 23.2572L12 23.9718L12.4287 23.2572L12 23ZM10 6.92308L9.51009 7.02299L9.55231 7.23L9.73017 7.34402L10 6.92308ZM10.2 7.05128L9.93017 7.47222L10.6415 7.92822L10.6989 7.0852L10.2 7.05128ZM9.66012 5.25641L10.15 5.1565L10.132 5.0681L10.0842 4.99158L9.66012 5.25641ZM9.50001 5L9.92411 4.73517L9.64447 4.28735L9.21251 4.59092L9.50001 5ZM9.13516 5.25641L8.84766 4.84733L8.65431 4.98321L8.63657 5.21887L9.13516 5.25641ZM9.00001 7.05128L8.50142 7.01374L8.50001 7.03248V7.05128H9.00001ZM9.00001 8.07692H8.50001V8.3675L8.75247 8.51135L9.00001 8.07692ZM9.90001 8.58974L10.3994 8.5654L10.386 8.29122L10.1475 8.15532L9.90001 8.58974ZM10.2 14.7436L9.7006 14.7679L9.71111 14.9835L9.87515 15.1237L10.2 14.7436ZM10.5 15L10.1751 15.3801L10.5 15.6577L10.8249 15.3801L10.5 15ZM10.8 14.7436L11.1249 15.1237L11.2889 14.9835L11.2994 14.7679L10.8 14.7436ZM11.1 8.58974L10.8525 8.15532L10.614 8.29122L10.6006 8.5654L11.1 8.58974ZM12 8.07692L12.2475 8.51135L12.5 8.3675V8.07692H12ZM12 7.05128H12.5V7.00978L12.4932 6.96885L12 7.05128ZM11.7 5.25641L12.1932 5.17398L12.1632 4.99453L12.0249 4.87632L11.7 5.25641ZM11.4 5L11.7249 4.61991L11.2838 4.24296L10.9761 4.73481L11.4 5ZM11.2396 5.25641L10.8157 4.99122L10.7514 5.09394L10.7413 5.21468L11.2396 5.25641ZM11.1 6.92308L11.2965 7.38285L11.5732 7.26462L11.5983 6.96481L11.1 6.92308ZM10.8 7.05128L10.3009 7.08137L10.3436 7.79005L10.9965 7.51106L10.8 7.05128ZM10.6918 5.25641L11.1909 5.22632L11.1819 5.07684L11.0922 4.95693L10.6918 5.25641ZM10.5 5L10.9004 4.70052L10.4848 4.14495L10.0892 4.71491L10.5 5ZM10.322 5.25641L9.91128 4.97132L9.83256 5.08474L9.82319 5.22249L10.322 5.25641ZM13.5 5L13.6795 4.53333L13.036 4.28583L13.0007 4.97438L13.5 5ZM14.5 5.38462L14.9588 5.18581L14.8753 4.99327L14.6795 4.91794L14.5 5.38462ZM13 14.7436L12.5007 14.718L12.4872 14.98L12.6952 15.1399L13 14.7436ZM13.3333 15L13.0285 15.3963L13.2509 15.5674L13.5128 15.4667L13.3333 15ZM14 14.7436L14.1795 15.2103L14.5 15.087V14.7436H14ZM14 10L13.8205 9.53333L13.5 9.6566V10H14ZM15 9.61539L15.1795 10.0821L15.5 9.95878V9.61539H15ZM15 6.53846H15.5V6.43479L15.4588 6.33966L15 6.53846ZM20.5 10C20.5 12.1 19.9374 13.6097 19.087 14.8528C18.2238 16.1145 17.0565 17.1161 15.7934 18.1959L16.4432 18.956C17.688 17.8919 18.9616 16.807 19.9123 15.4174C20.8757 14.0093 21.5 12.303 21.5 10H20.5ZM12 1.5C16.6944 1.5 20.5 5.30558 20.5 10H21.5C21.5 4.75329 17.2467 0.5 12 0.5V1.5ZM3.49999 10C3.49999 5.30558 7.30557 1.5 12 1.5V0.5C6.75329 0.5 2.49999 4.75329 2.49999 10H3.49999ZM8.20655 18.1959C6.94346 17.1161 5.77621 16.1145 4.91303 14.8528C4.06257 13.6097 3.49999 12.1 3.49999 10H2.49999C2.49999 12.303 3.1243 14.0093 4.0877 15.4174C5.03837 16.807 6.31195 17.8919 7.55678 18.956L8.20655 18.1959ZM12.4287 22.7428C11.2677 20.8077 9.67878 19.4544 8.20655 18.1959L7.55678 18.956C9.04316 20.2266 10.5062 21.4822 11.5712 23.2572L12.4287 22.7428ZM15.7934 18.1959C14.3212 19.4544 12.7323 20.8077 11.5712 22.7428L12.4287 23.2572C13.4938 21.4822 14.9568 20.2266 16.4432 18.956L15.7934 18.1959ZM9.73017 7.34402L9.93017 7.47222L10.4698 6.63034L10.2698 6.50214L9.73017 7.34402ZM9.17021 5.35632L9.51009 7.02299L10.4899 6.82317L10.15 5.1565L9.17021 5.35632ZM9.0759 5.26483L9.23602 5.52124L10.0842 4.99158L9.92411 4.73517L9.0759 5.26483ZM9.42265 5.66549L9.7875 5.40908L9.21251 4.59092L8.84766 4.84733L9.42265 5.66549ZM9.49859 7.08882L9.63374 5.29395L8.63657 5.21887L8.50142 7.01374L9.49859 7.08882ZM9.50001 8.07692V7.05128H8.50001V8.07692H9.50001ZM10.1475 8.15532L9.24754 7.6425L8.75247 8.51135L9.65247 9.02417L10.1475 8.15532ZM10.6994 14.7192L10.3994 8.5654L9.4006 8.61409L9.7006 14.7679L10.6994 14.7192ZM10.8249 14.6199L10.5249 14.3635L9.87515 15.1237L10.1751 15.3801L10.8249 14.6199ZM10.4751 14.3635L10.1751 14.6199L10.8249 15.3801L11.1249 15.1237L10.4751 14.3635ZM10.6006 8.5654L10.3006 14.7192L11.2994 14.7679L11.5994 8.61409L10.6006 8.5654ZM11.7525 7.6425L10.8525 8.15532L11.3475 9.02417L12.2475 8.51135L11.7525 7.6425ZM11.5 7.05128V8.07692H12.5V7.05128H11.5ZM11.2068 5.33884L11.5068 7.13371L12.4932 6.96885L12.1932 5.17398L11.2068 5.33884ZM11.0751 5.38009L11.3751 5.6365L12.0249 4.87632L11.7249 4.61991L11.0751 5.38009ZM11.6635 5.5216L11.8239 5.26519L10.9761 4.73481L10.8157 4.99122L11.6635 5.5216ZM11.5983 6.96481L11.7378 5.29814L10.7413 5.21468L10.6018 6.88135L11.5983 6.96481ZM10.9965 7.51106L11.2965 7.38285L10.9035 6.4633L10.6035 6.59151L10.9965 7.51106ZM10.1927 5.2865L10.3009 7.08137L11.2991 7.02119L11.1909 5.22632L10.1927 5.2865ZM10.0996 5.29948L10.2914 5.5559L11.0922 4.95693L10.9004 4.70052L10.0996 5.29948ZM10.7328 5.5415L10.9108 5.28509L10.0892 4.71491L9.91128 4.97132L10.7328 5.5415ZM10.6989 7.0852L10.8209 5.29033L9.82319 5.22249L9.70116 7.01737L10.6989 7.0852ZM13.3205 5.46667L14.3205 5.85129L14.6795 4.91794L13.6795 4.53333L13.3205 5.46667ZM13.4993 14.7692L13.9993 5.02562L13.0007 4.97438L12.5007 14.718L13.4993 14.7692ZM13.6382 14.6037L13.3049 14.3473L12.6952 15.1399L13.0285 15.3963L13.6382 14.6037ZM13.8205 14.2769L13.1539 14.5333L13.5128 15.4667L14.1795 15.2103L13.8205 14.2769ZM13.5 10V14.7436H14.5V10H13.5ZM14.8205 9.14871L13.8205 9.53333L14.1795 10.4667L15.1795 10.0821L14.8205 9.14871ZM14.5 6.53846V9.61539H15.5V6.53846H14.5ZM14.0412 5.58342L14.5412 6.73727L15.4588 6.33966L14.9588 5.18581L14.0412 5.58342Z" fill="black" mask="url(#path-1-inside-1_1313_59)"/>
</svg>
