<svg width="32" height="32" viewBox="0 0 32 32" fill="none" xmlns="http://www.w3.org/2000/svg">
<path d="M24.75 10.6357C24.75 12.497 24.1994 14.6268 23.3607 16.7866C22.5232 18.9433 21.4047 21.1136 20.2836 23.051C19.1628 24.9879 18.0417 26.688 17.2006 27.904C16.7802 28.5119 16.43 28.9985 16.185 29.3328C16.1143 29.4294 16.0523 29.5133 16 29.5837C15.9477 29.5133 15.8857 29.4294 15.815 29.3328C15.57 28.9985 15.2198 28.5119 14.7994 27.904C13.9583 26.688 12.8372 24.9879 11.7164 23.051C10.5953 21.1136 9.47684 18.9433 8.63929 16.7866C7.80058 14.6268 7.25 12.497 7.25 10.6357C7.25 6.01405 11.1577 2.25 16 2.25C20.8423 2.25 24.75 6.01405 24.75 10.6357ZM16 14.8952C16.9816 14.8952 17.9421 14.4051 18.6521 13.6926C19.3621 12.98 19.85 12.0165 19.85 11.0323C19.85 10.048 19.3621 9.08452 18.6521 8.37193C17.9421 7.65939 16.9816 7.16935 16 7.16935C15.0184 7.16935 14.0579 7.65939 13.3479 8.37193C12.6379 9.08452 12.15 10.048 12.15 11.0323C12.15 12.0165 12.6379 12.98 13.3479 13.6926C14.0579 14.4051 15.0184 14.8952 16 14.8952Z" fill="white" stroke="black" stroke-width="0.5"/>
</svg>
